# xmcd CD database file
#
# Track frame offsets:
#	150
#	7477
#	15226
#	22975
#	30724
#	35062
#	39400
#	43738
#	48076
#	57259
#	66697
#	76135
#	85573
#	91594
#	97751
#	103908
#
# Disc length: 1464 seconds
#
# Revision: 0
# Processed by: cddbd v1.5.2PL0 Copyright (c) Steve Scherf et al.
# Submitted via: CDex 1.70beta2
#
DISCID=bb05b610
DTITLE=Frank Spaniol - Time for Trio (Sax) Vol2
DYEAR=2008
DGENRE=Jazz
TTITLE0=Summersong
TTITLE1=Summersong Alt1
TTITLE2=Summersong Alt2
TTITLE3=Summersong Tenor
TTITLE4=Minor Melody
TTITLE5=Minor Melody Alt1
TTITLE6=Minor Melody Alt2
TTITLE7=Minor Melody Tenor
TTITLE8=Blues for Three
TTITLE9=Blues for Three Alt1
TTITLE10=Blues for Three Alt2
TTITLE11=Blues for Three Tenor
TTITLE12=Mambo Blue
TTITLE13=Mambo Blue Alt1
TTITLE14=Mambo Blue Alt2
TTITLE15=Mambo Blue Tenor
EXTD=YEAR: 2008
EXTT0=
EXTT1=
EXTT2=
EXTT3=
EXTT4=
EXTT5=
EXTT6=
EXTT7=
EXTT8=
EXTT9=
EXTT10=
EXTT11=
EXTT12=
EXTT13=
EXTT14=
EXTT15=
PLAYORDER=
